# xmcd CD database file
#
# Track frame offsets:
#	150
#	18146
#	29604
#	44177
#	55858
#	69138
#	84083
#	97945
#	115183
#	130702
#	142793
#	151600
#	167599
#	177762
#	195621
#	211783
#	225711
#	239383
#	253868
#	268312
#
# Disc length: 3759 seconds
#
# Revision: 4
# Processed by: cddbd v1.5.1PL0 Copyright (c) Steve Scherf et al.
# Submitted via: CDex 1.51
#
DISCID=fe0ead14
DTITLE=Tom Astor - Meilensteine
DYEAR=1900
DGENRE=Country
TTITLE0=Tom Astor and Waylon Jennings - I've Always Been Crazy (Ich spiel mit dem Teufel)
TTITLE1=Tom Astor and Willie Nelson - Two Stories Wide
TTITLE2=Tom Astor and Don Williams - I'm Getting Good At Missing You
TTITLE3=Tom Astor and Emmylou Harris - The Last Time (Geh nicht allein)
TTITLE4=Tom Astor and Bellamy Brothers - Redneck Riviera
TTITLE5=Tom Astor and Pam Gadd - Send A Message To My Heart (Fax mir bitte jeden Tag)
TTITLE6=Tom Astor and Moe Bandy - Till I'm Too Old To Die Young (Lass mich so jung nicht geh'n)
TTITLE7=Tom Astor and Lynn Anderson - Under The Boardwalk
TTITLE8=Tom Astor and David Allen Coe - Then I Find You (Dann fand ich sie)
TTITLE9=Tom Astor and Bobby Bare - 500 Miles Away From Home (500 Meilen von Zuhaus)
TTITLE10=Tom Astor and Buck Owens - Sam's Place
TTITLE11=Tom Astor and The McCarters - Letter From Home (Ein Brief von zuhaus)
TTITLE12=Tom Astor and Boxcar Willie - Big Freight Train Carry Me Home
TTITLE13=Tom Astor and Joe Diffie - It Is Cold In Here (Es ist viel zu kalt)
TTITLE14=Tom Astor and Wild Rose - Till A Tear Becomes A Rose (Wir sind stark)
TTITLE15=Tom Astor and Tommy Overstreet - Heaven Is My Woman's Love
TTITLE16=Tom Astor and Ed Bruce - You Just Can't See Himfrom The Road (Alte Cowboys sterben nie)
TTITLE17=Tom Astor and Dick Curless - A Tombstone Every Mile (Ein Grabstein überall)
TTITLE18=Tom Astor and Dave Dudley - Im Stau
TTITLE19=Tom Astor and Stars from "Grand Old Opry" - Take Me Home Country Roads
EXTD=
EXTT0=
EXTT1=
EXTT2=
EXTT3=
EXTT4=
EXTT5=
EXTT6=
EXTT7=
EXTT8=
EXTT9=
EXTT10=
EXTT11=
EXTT12=
EXTT13=
EXTT14=
EXTT15=
EXTT16=
EXTT17=
EXTT18=
EXTT19=
PLAYORDER=
